<?xml version="1.0" standalone="no"?>
<!DOCTYPE svg PUBLIC "-//W3C//DTD SVG 20010904//EN"
 "http://www.w3.org/TR/2001/REC-SVG-20010904/DTD/svg10.dtd">
<svg version="1.0" xmlns="http://www.w3.org/2000/svg"
 width="1068.000000pt" height="1068.000000pt" viewBox="0 0 1068.000000 1068.000000"
 preserveAspectRatio="xMidYMid meet">
<metadata>
Created by potrace 1.11, written by Peter Selinger 2001-2013
</metadata>
<g transform="translate(0.000000,1068.000000) scale(0.100000,-0.100000)"
fill="#000000" stroke="none">
<path d="M7698 7945 c-2 -2 -61 -6 -133 -10 -71 -4 -143 -8 -160 -10 -16 -1
-64 -6 -105 -9 -41 -4 -113 -12 -160 -17 -47 -6 -103 -12 -125 -15 -67 -8
-118 -14 -175 -24 -30 -5 -72 -11 -92 -14 -58 -9 -108 -17 -132 -22 -11 -2
-37 -7 -56 -10 -35 -6 -231 -43 -260 -49 -24 -6 -213 -46 -236 -51 -94 -19
-679 -174 -754 -200 -8 -3 -17 -6 -20 -6 -3 -1 -34 -11 -70 -23 -36 -12 -69
-23 -75 -25 -21 -6 -36 -10 -210 -69 -349 -117 -694 -251 -1015 -394 l-144
-64 -57 39 c-201 137 -483 144 -690 19 -184 -112 -296 -302 -306 -516 -4 -74
-9 -103 -20 -110 -8 -5 -89 -57 -179 -115 -149 -96 -435 -295 -509 -354 -16
-13 -86 -69 -155 -124 -145 -117 -153 -123 -284 -245 -139 -128 -209 -199
-361 -371 -47 -52 -145 -178 -185 -236 -8 -12 -23 -33 -32 -45 -10 -13 -18
-28 -18 -34 0 -6 -3 -11 -8 -11 -4 0 -16 -17 -27 -37 -11 -21 -31 -54 -43 -73
-76 -113 -178 -376 -205 -530 -15 -84 -16 -285 -2 -359 35 -181 148 -372 301
-509 76 -68 192 -152 211 -152 6 0 13 -4 15 -9 3 -10 251 -131 267 -131 6 0
19 -4 29 -9 9 -5 60 -23 112 -40 199 -64 444 -112 753 -145 15 -2 27 2 27 8 0
7 3 7 8 -1 19 -30 753 -36 1012 -8 19 2 71 6 115 10 44 3 98 8 120 10 73 9
290 35 320 40 77 11 233 35 255 40 13 2 40 7 60 10 20 3 47 7 60 10 14 3 52
10 85 16 33 6 69 13 80 15 11 2 74 15 140 29 66 14 131 28 145 31 14 3 33 7
42 10 10 3 30 7 45 10 16 3 55 12 88 21 33 8 68 17 78 19 28 7 48 12 132 34
44 12 87 23 95 25 49 12 212 58 250 71 25 9 53 17 62 19 68 14 719 233 808
272 8 3 17 7 20 8 34 8 465 182 545 220 17 7 50 23 75 33 94 42 158 70 240
108 93 42 569 281 585 294 6 4 41 24 78 44 37 20 84 46 105 58 20 11 57 32 82
46 25 13 52 31 61 38 8 8 19 14 22 14 4 0 58 32 119 70 62 39 122 76 133 83
24 15 201 131 270 178 28 18 52 37 53 41 2 4 8 8 13 8 6 0 27 13 47 28 20 16
84 64 142 107 96 72 289 225 316 250 6 5 42 37 80 70 37 33 109 99 159 147 63
62 97 88 115 88 36 0 120 42 154 76 52 53 71 101 71 184 0 85 -20 133 -76 188
-45 44 -92 64 -165 70 -51 4 -71 0 -115 -20 -98 -45 -146 -114 -158 -228 -7
-67 -8 -69 -81 -151 -184 -207 -468 -468 -685 -629 -33 -24 -64 -48 -70 -53
-100 -85 -680 -463 -805 -524 -19 -9 -51 -26 -70 -38 -91 -56 -451 -241 -625
-322 -49 -23 -121 -56 -160 -74 -38 -18 -74 -33 -80 -35 -5 -1 -41 -17 -80
-34 -81 -37 -439 -181 -535 -216 -36 -12 -101 -36 -145 -52 -94 -34 -344 -118
-465 -155 -111 -34 -232 -70 -246 -73 -7 -1 -52 -13 -100 -27 -49 -14 -111
-31 -139 -37 -27 -6 -72 -17 -100 -25 -46 -13 -168 -43 -204 -50 -9 -2 -92
-19 -186 -38 -93 -20 -183 -38 -200 -41 -16 -3 -70 -12 -120 -21 -164 -28
-193 -32 -335 -50 -25 -3 -58 -8 -75 -10 -77 -10 -125 -15 -180 -20 -33 -4
-78 -8 -100 -10 -134 -14 -307 -20 -580 -20 -313 0 -476 8 -614 30 -13 3 -45
7 -70 11 -25 3 -57 8 -71 10 -14 3 -38 7 -55 9 -16 3 -59 11 -95 19 -303 69
-527 155 -715 278 -112 73 -261 223 -319 323 -45 77 -90 195 -101 265 -3 19
-7 49 -10 65 -6 31 -6 148 -1 200 13 123 59 279 122 414 24 51 44 95 44 98 0
3 14 25 30 50 17 24 30 46 30 49 0 22 217 312 321 430 130 147 364 366 559
525 136 111 139 113 305 235 59 43 126 89 255 176 111 74 115 76 124 55 6 -12
25 -55 43 -95 18 -41 33 -75 33 -77 0 -2 -21 -17 -47 -33 -27 -17 -82 -54
-123 -83 -41 -29 -89 -62 -105 -73 -43 -30 -97 -71 -200 -151 -84 -65 -112
-89 -171 -140 -12 -11 -49 -42 -81 -70 -78 -67 -317 -307 -373 -374 -25 -30
-50 -59 -55 -65 -20 -21 -130 -171 -166 -226 -110 -168 -196 -356 -228 -501
-20 -92 -22 -107 -26 -199 -6 -153 24 -284 91 -407 19 -34 34 -67 34 -75 0
-25 47 -113 76 -142 73 -73 195 -96 287 -53 100 46 151 122 151 227 1 96 -17
144 -74 196 -65 60 -120 220 -125 358 -7 258 97 522 329 829 108 143 371 414
513 527 10 8 54 44 98 80 74 61 186 145 261 198 l31 21 61 -91 c34 -50 62 -93
62 -97 -1 -3 -44 -37 -98 -76 -261 -187 -564 -464 -713 -650 -171 -214 -270
-403 -319 -614 -13 -54 -16 -217 -6 -258 3 -13 8 -32 11 -44 56 -255 336 -486
705 -581 19 -5 53 -14 75 -19 22 -6 49 -13 60 -15 11 -2 31 -6 45 -9 109 -23
236 -39 405 -51 85 -6 455 -6 540 0 111 8 222 17 255 21 19 2 58 7 85 10 49 5
60 7 160 20 80 10 102 14 250 41 138 25 161 30 200 38 156 33 276 61 354 82
53 14 130 34 171 45 195 52 716 223 845 278 11 5 36 16 57 25 20 9 39 16 43
16 4 0 21 6 38 14 18 8 79 35 137 59 180 76 248 108 485 227 244 124 334 172
377 202 14 10 29 18 32 18 3 0 37 20 76 45 39 25 72 45 75 45 2 0 63 39 136
87 183 122 208 140 241 165 16 12 42 31 57 42 51 37 196 149 201 156 3 4 39
35 80 70 181 152 463 462 522 575 6 11 14 22 17 25 3 3 12 15 19 28 6 12 18
32 25 45 6 12 14 24 17 27 3 3 13 23 24 45 10 22 23 49 28 59 14 27 47 122 63
181 57 216 21 428 -100 591 -113 151 -316 280 -564 358 -46 15 -123 35 -170
46 -77 16 -102 21 -176 34 -11 2 -47 7 -80 10 -33 4 -69 9 -80 11 -34 7 -205
17 -332 19 -101 2 -126 6 -142 20 -47 43 -153 26 -195 -30 -27 -37 -32 -98
-12 -142 26 -56 61 -78 121 -74 164 9 341 3 430 -14 16 -3 43 -7 60 -8 58 -6
120 -18 145 -27 14 -5 34 -10 45 -13 11 -2 39 -7 63 -11 23 -4 45 -12 48 -16
3 -5 15 -9 28 -9 12 0 26 -4 32 -8 5 -4 27 -14 49 -21 231 -77 435 -259 500
-446 83 -234 0 -536 -229 -840 -79 -105 -151 -186 -292 -329 -15 -16 -132
-118 -174 -152 -19 -16 -46 -39 -60 -52 -14 -13 -45 -37 -70 -55 -25 -17 -47
-33 -50 -36 -30 -35 -344 -246 -525 -353 -192 -115 -543 -297 -715 -372 -36
-16 -87 -39 -115 -51 -27 -12 -81 -35 -120 -50 -38 -16 -74 -32 -79 -37 -6 -4
-15 -8 -22 -8 -6 0 -28 -7 -48 -15 -20 -8 -37 -14 -38 -13 -2 1 -14 -5 -28
-12 -14 -8 -29 -15 -35 -16 -5 -1 -55 -19 -110 -39 -234 -87 -635 -210 -817
-251 -10 -2 -26 -6 -35 -8 -201 -49 -403 -90 -568 -116 -177 -27 -208 -31
-345 -45 -41 -4 -88 -9 -105 -11 -173 -22 -654 -21 -798 1 -12 2 -49 6 -82 10
-153 16 -385 75 -525 133 -257 107 -412 256 -485 467 -21 60 -29 234 -14 315
17 94 82 263 132 344 7 11 27 45 46 75 119 194 370 461 628 669 98 79 239 182
248 181 6 0 38 -37 72 -82 l63 -82 -23 -18 c-104 -87 -263 -238 -347 -332 -96
-109 -250 -334 -250 -368 0 -9 -4 -17 -8 -17 -9 0 -25 -37 -58 -139 -76 -233
-30 -455 127 -610 77 -76 81 -80 136 -114 120 -76 258 -130 438 -172 114 -26
150 -32 320 -52 139 -16 658 -8 786 11 13 3 51 7 84 10 68 8 101 12 200 27 71
12 90 15 135 24 14 2 45 7 70 11 24 3 48 8 52 11 5 2 21 6 36 9 74 12 227 46
297 65 22 6 49 13 60 15 23 4 196 52 300 83 39 12 128 41 200 65 102 34 134
41 152 33 55 -25 136 22 148 87 15 79 -46 149 -123 140 -45 -5 -68 -19 -88
-52 -18 -31 -84 -58 -309 -127 -66 -20 -131 -41 -145 -46 -66 -24 -493 -123
-625 -144 -16 -3 -41 -7 -55 -10 -80 -15 -294 -43 -391 -51 -41 -3 -90 -7
-109 -9 -45 -5 -410 -5 -472 -1 -174 14 -380 50 -486 87 -31 11 -57 19 -57 19
0 -4 -64 24 -127 55 -302 150 -419 396 -332 705 24 85 107 245 179 345 115
160 337 387 357 367 8 -8 7 -20 -2 -42 -15 -37 -2 -96 29 -124 53 -48 137 -32
166 32 9 20 20 44 24 52 7 13 104 94 201 168 41 32 273 186 300 200 14 7 63
35 110 63 182 107 586 297 785 369 242 88 580 195 684 216 13 3 51 12 85 20
99 24 81 20 291 60 11 2 31 6 45 8 28 6 70 12 145 21 28 4 61 8 75 10 185 27
609 27 800 0 130 -18 320 -78 401 -126 28 -16 52 -29 54 -29 18 0 129 -111
159 -158 84 -134 81 -305 -7 -492 -50 -105 -128 -215 -229 -325 -20 -22 -45
-49 -55 -60 -19 -20 -109 -104 -175 -162 -32 -28 -214 -166 -264 -201 -51 -34
-192 -126 -214 -138 -14 -8 -41 -24 -60 -35 -19 -12 -53 -31 -75 -42 -22 -12
-42 -24 -45 -27 -26 -26 -356 -185 -575 -277 -239 -100 -682 -252 -815 -278
-8 -2 -44 -11 -80 -20 -36 -9 -72 -18 -80 -20 -234 -50 -342 -71 -410 -80 -25
-3 -56 -8 -70 -10 -14 -2 -52 -7 -85 -11 -33 -3 -73 -8 -90 -10 -196 -25 -561
-23 -740 6 -259 40 -440 113 -568 228 -60 52 -59 52 8 -14 137 -135 381 -223
699 -251 151 -14 572 -6 665 12 11 2 46 7 78 10 32 4 69 8 83 10 49 6 276 46
336 60 34 8 73 16 85 19 13 2 71 16 129 31 58 14 112 28 120 30 80 18 394 118
540 172 370 136 754 319 1055 503 142 87 396 263 451 315 7 5 31 26 55 45 64
51 248 236 306 305 108 131 198 294 228 413 22 83 22 203 2 272 -22 75 -82
165 -148 222 -48 43 -230 145 -269 152 -8 1 -46 12 -85 24 -63 19 -179 43
-275 56 -167 24 -489 24 -715 1 -110 -12 -174 -19 -235 -29 -25 -4 -58 -10
-75 -12 -16 -2 -68 -12 -115 -20 -47 -9 -96 -18 -110 -20 -51 -10 -247 -56
-296 -70 -28 -8 -60 -16 -70 -19 -11 -2 -66 -18 -124 -35 -58 -16 -113 -32
-124 -35 -22 -5 -310 -104 -346 -118 -14 -6 -29 -11 -35 -13 -28 -7 -301 -121
-407 -169 -235 -108 -521 -262 -688 -370 -36 -23 -75 -47 -87 -53 -32 -17 95
151 132 174 17 10 48 30 70 43 22 13 59 36 82 52 23 16 44 29 48 29 3 0 22 11
43 23 54 35 177 100 332 177 121 61 159 79 265 125 17 8 56 25 88 39 75 34
253 103 387 151 663 238 1338 369 1900 368 129 0 337 -10 379 -18 10 -2 41 -7
68 -10 26 -4 80 -14 118 -22 39 -8 79 -16 91 -19 39 -8 176 -54 217 -74 22
-11 44 -20 48 -20 25 0 177 -106 230 -161 112 -115 154 -223 153 -394 0 -97
-4 -121 -33 -205 -30 -87 -75 -181 -119 -248 -9 -14 -12 -23 -5 -19 6 4 32 42
57 85 313 535 84 953 -604 1102 -47 10 -110 21 -140 25 -30 4 -64 9 -75 11
-120 24 -573 23 -800 -1 -27 -3 -68 -7 -90 -10 -55 -5 -134 -15 -170 -22 -16
-2 -39 -6 -50 -8 -41 -5 -102 -15 -125 -20 -14 -3 -37 -7 -51 -10 -14 -3 -61
-12 -105 -20 -43 -9 -90 -18 -104 -21 -14 -3 -43 -10 -65 -16 -22 -5 -51 -12
-64 -15 -123 -22 -542 -149 -776 -235 -44 -16 -91 -33 -105 -37 -32 -11 -192
-76 -250 -103 -25 -11 -49 -21 -55 -23 -12 -2 -54 -21 -205 -93 -214 -102
-380 -188 -462 -239 -21 -13 -40 -23 -42 -23 -3 0 15 35 39 78 23 42 53 102
66 132 13 30 28 58 33 62 6 4 8 8 4 8 -3 0 0 23 7 51 8 29 13 91 12 140 l-2
88 80 37 c199 92 265 120 440 191 258 105 542 205 800 283 235 71 599 166 774
200 25 5 57 12 71 15 14 3 41 8 60 11 19 3 42 7 51 10 9 2 33 7 53 9 19 3 55
9 78 14 24 5 70 13 103 16 33 4 62 9 65 10 3 2 34 6 70 10 36 4 73 9 83 11 10
2 48 6 85 10 37 3 78 8 92 9 342 36 780 36 1055 -1 46 -6 206 -31 250 -39 137
-26 350 -94 458 -147 43 -21 80 -38 83 -38 3 0 44 -26 92 -57 89 -60 201 -162
242 -223 13 -19 27 -37 30 -40 9 -7 59 -113 75 -161 87 -247 16 -576 -194
-899 -30 -47 -64 -97 -75 -111 -12 -14 -32 -41 -46 -59 -83 -113 -313 -353
-449 -470 -36 -30 -72 -62 -81 -70 -31 -31 -283 -227 -346 -270 -176 -121
-281 -191 -385 -254 -68 -42 -131 -81 -139 -86 -8 -6 -22 -13 -30 -17 -8 -4
-37 -20 -65 -36 -113 -67 -224 -127 -380 -205 -280 -140 -542 -257 -795 -353
-85 -33 -164 -64 -175 -69 -125 -55 -821 -272 -1011 -315 -10 -2 -68 -16 -129
-30 -60 -14 -166 -37 -235 -51 -68 -14 -127 -27 -130 -30 -12 -12 402 73 570
118 109 28 277 74 310 83 181 51 494 153 660 215 47 17 108 39 135 49 139 51
442 179 645 272 110 51 459 226 510 257 19 12 51 29 70 39 19 9 55 29 80 44
25 15 104 62 175 104 157 94 394 254 553 372 64 48 119 90 122 93 3 3 28 24
55 45 28 22 52 42 55 45 3 3 34 30 70 60 80 67 346 332 421 420 183 214 314
433 383 641 44 134 57 207 57 321 2 417 -293 725 -851 892 -47 14 -100 28
-119 31 -19 3 -37 8 -41 10 -7 4 -44 12 -100 21 -19 3 -43 7 -53 10 -17 5 -33
8 -132 19 -27 4 -61 8 -75 10 -188 30 -705 35 -960 10 -25 -2 -76 -7 -115 -10
-73 -7 -119 -12 -195 -21 -25 -3 -56 -7 -70 -9 -22 -2 -48 -6 -150 -20 -57 -9
-220 -37 -285 -50 -38 -8 -86 -17 -105 -20 -19 -3 -87 -17 -150 -31 -63 -15
-122 -27 -132 -29 -42 -9 -236 -57 -258 -65 -14 -5 -40 -12 -59 -15 -19 -3
-37 -8 -41 -10 -3 -2 -42 -13 -86 -25 -86 -23 -294 -85 -334 -101 -14 -5 -34
-11 -45 -14 -16 -3 -194 -65 -290 -100 -11 -4 -42 -15 -70 -25 -88 -31 -468
-182 -530 -210 -33 -15 -82 -37 -110 -49 -27 -12 -58 -26 -67 -31 -13 -7 -22
0 -44 38 -15 26 -42 66 -61 90 l-34 42 107 51 c483 226 1175 479 1739 634 132
36 426 111 465 118 14 3 55 12 91 21 71 16 103 23 159 32 19 3 37 7 40 9 3 2
46 11 95 19 50 9 101 18 115 21 14 3 45 8 70 11 25 3 61 9 80 14 19 4 60 11
90 15 30 4 64 9 75 11 11 2 40 6 65 9 25 3 61 7 80 10 19 2 62 7 95 11 33 3
71 7 85 10 14 2 63 6 110 10 47 3 96 7 110 10 133 22 838 22 981 0 13 -3 58
-7 99 -11 41 -4 84 -9 95 -11 11 -2 43 -6 70 -9 41 -6 262 -49 300 -59 6 -2
24 -6 40 -11 147 -37 364 -117 455 -166 30 -16 46 -22 35 -13 -29 24 -185 97
-300 139 -134 50 -389 115 -512 130 -12 2 -34 6 -50 9 -33 6 -105 17 -148 21
-16 1 -61 6 -100 10 -38 4 -87 9 -110 11 -53 5 -653 13 -657 9z"/>
<path d="M6063 6463 c9 -2 25 -2 35 0 9 3 1 5 -18 5 -19 0 -27 -2 -17 -5z"/>
<path d="M5955 6450 c-16 -7 -17 -9 -3 -9 9 -1 20 4 23 9 7 11 7 11 -20 0z"/>
<path d="M6003 6453 c9 -2 23 -2 30 0 6 3 -1 5 -18 5 -16 0 -22 -2 -12 -5z"/>
<path d="M5820 6429 c-19 -4 -50 -11 -69 -14 -19 -3 -37 -8 -40 -11 -3 -3 8
-4 24 -1 17 3 49 8 73 12 23 4 45 12 48 16 3 5 4 9 2 8 -2 -1 -19 -5 -38 -10z"/>
<path d="M5878 6433 c7 -3 16 -2 19 1 4 3 -2 6 -13 5 -11 0 -14 -3 -6 -6z"/>
<path d="M5630 6389 c-19 -5 -45 -10 -56 -13 -130 -26 -590 -171 -689 -217
-22 -10 -64 -28 -94 -39 -189 -73 -529 -250 -707 -366 -49 -33 -93 -61 -99
-63 -5 -2 -22 -13 -36 -25 -14 -12 -36 -28 -49 -36 -62 -41 -239 -191 -319
-270 -257 -256 -373 -537 -307 -738 20 -58 88 -157 131 -187 15 -11 39 -29 54
-41 50 -40 217 -108 316 -128 180 -37 275 -46 475 -46 85 0 173 2 195 4 126
12 189 18 203 20 9 2 44 7 77 11 57 7 72 9 125 20 14 2 39 7 55 10 17 3 41 7
55 10 14 3 39 8 55 10 17 3 38 8 47 11 9 3 25 6 35 8 11 2 48 11 84 20 35 9
73 18 84 21 152 32 587 185 805 282 71 32 357 174 410 204 208 117 452 283
580 394 93 80 263 259 316 331 73 100 143 237 159 309 4 17 18 54 32 83 55
113 -5 225 -125 236 -124 12 -216 -139 -146 -238 18 -26 18 -86 0 -152 -15
-58 -63 -169 -85 -200 -9 -12 -23 -32 -31 -44 -61 -91 -227 -268 -324 -345
-20 -16 -49 -40 -64 -53 -15 -12 -61 -46 -102 -74 -41 -29 -77 -54 -80 -57
-34 -38 -450 -265 -635 -346 -22 -9 -53 -23 -70 -31 -290 -128 -743 -262
-1077 -318 -412 -69 -771 -65 -1038 10 -134 38 -245 97 -315 168 -145 146
-159 322 -43 551 17 33 33 62 37 65 3 3 24 32 46 65 41 62 250 278 319 330 22
17 44 35 50 40 10 9 63 49 158 118 20 15 41 27 47 27 6 0 11 4 11 8 0 5 10 14
23 21 12 6 34 19 49 29 44 29 218 127 308 175 107 56 448 212 478 218 4 1 18
6 32 11 14 5 54 20 90 33 147 54 313 103 550 164 41 11 66 19 55 19 -11 0 -36
-4 -55 -9z"/>
<path d="M6060 6330 c-30 -4 -82 -10 -115 -14 -256 -29 -711 -144 -925 -233
-8 -3 -19 -7 -25 -8 -5 -2 -62 -24 -125 -50 -205 -84 -398 -183 -628 -320 -24
-14 -135 -88 -147 -98 -5 -4 -52 -40 -104 -79 -85 -65 -239 -210 -300 -284
-58 -70 -132 -196 -156 -267 -43 -130 -34 -252 27 -341 63 -93 202 -177 358
-218 70 -18 90 -28 116 -57 76 -86 219 -17 200 97 -12 74 -91 117 -161 88 -41
-18 -64 -12 -170 39 -83 39 -160 110 -190 171 -26 53 -27 59 -27 144 -2 351
545 816 1317 1120 106 42 346 122 400 135 11 2 54 14 95 25 137 37 339 75 520
96 85 11 419 11 495 1 55 -7 126 -22 217 -45 75 -19 190 -85 244 -139 241
-243 18 -655 -561 -1035 -55 -36 -127 -80 -160 -98 -33 -18 -64 -37 -70 -43
-25 -25 199 105 317 185 130 87 203 145 315 252 210 200 321 400 310 555 -6
85 -11 104 -41 156 -69 117 -255 218 -456 249 -19 3 -46 8 -60 12 -38 9 -448
13 -510 4z"/>
<path d="M5970 6179 c-36 -4 -88 -11 -116 -14 -29 -3 -61 -7 -72 -10 -11 -2
-35 -6 -53 -9 -41 -7 -160 -31 -249 -50 -35 -8 -68 -12 -73 -9 -4 3 -21 -1
-38 -7 -36 -16 -47 -51 -25 -85 20 -31 67 -34 93 -6 16 16 103 44 183 58 14 2
36 6 50 9 14 2 41 7 60 10 19 3 42 7 50 9 8 2 46 7 85 11 38 3 78 8 90 10 27
6 293 6 325 0 14 -3 45 -7 70 -10 25 -3 76 -15 115 -26 284 -81 376 -257 260
-498 -14 -30 -30 -59 -36 -65 -5 -7 -31 -40 -57 -73 -47 -61 -140 -155 -195
-197 -15 -12 -38 -30 -50 -41 -18 -15 -216 -147 -292 -193 -51 -32 -350 -174
-434 -207 -294 -115 -604 -195 -871 -223 -147 -16 -424 -9 -535 12 -55 11
-169 53 -217 80 -64 36 -133 115 -153 175 -36 108 3 249 106 388 22 28 37 52
34 52 -10 0 -98 -126 -125 -180 -106 -209 -51 -379 153 -478 83 -41 182 -70
266 -78 25 -3 57 -7 71 -10 32 -6 259 -5 325 1 158 15 154 14 280 36 295 51
633 159 928 297 59 28 109 50 110 50 1 -1 21 11 44 25 24 15 47 27 53 27 5 0
10 3 10 8 0 4 15 14 33 21 17 8 43 22 57 32 14 9 59 38 100 65 429 275 647
609 544 833 -54 119 -214 214 -413 247 -18 3 -43 8 -55 11 -38 8 -369 10 -436
2z"/>
<path d="M5938 6045 c-2 -2 -37 -6 -77 -9 -41 -4 -95 -11 -120 -16 -26 -5 -66
-11 -91 -15 -61 -9 -285 -67 -395 -103 -399 -131 -775 -346 -989 -566 -119
-123 -182 -231 -192 -331 -9 -91 8 -145 65 -204 195 -203 714 -210 1326 -20
218 68 588 233 697 311 15 10 38 21 50 23 53 11 69 74 27 108 -37 30 -98 3
-99 -44 0 -36 -291 -192 -530 -287 -128 -50 -326 -109 -465 -138 -71 -14 -126
-24 -165 -28 -25 -3 -72 -8 -105 -12 -73 -9 -265 -8 -320 0 -91 14 -112 19
-150 31 -94 31 -130 52 -186 110 -65 67 -79 144 -44 246 105 312 654 672 1283
840 121 32 131 35 207 49 88 16 109 20 165 26 30 4 69 8 85 10 41 5 251 5 296
0 30 -3 110 -16 129 -21 117 -30 198 -73 250 -132 25 -29 35 -36 23 -18 -53
87 -163 145 -333 176 -54 10 -334 21 -342 14z"/>
<path d="M8049 5583 c-13 -16 -12 -17 4 -4 9 7 17 15 17 17 0 8 -8 3 -21 -13z"/>
<path d="M6134 4894 c-18 -14 -18 -14 6 -3 31 14 36 19 24 19 -6 0 -19 -7 -30
-16z"/>
<path d="M4475 3360 l-30 -8 27 -1 c15 0 30 4 33 9 3 6 5 9 3 9 -2 -1 -16 -5
-33 -9z"/>
<path d="M4418 3343 c7 -3 16 -2 19 1 4 3 -2 6 -13 5 -11 0 -14 -3 -6 -6z"/>
<path d="M4348 3333 c6 -2 18 -2 25 0 6 3 1 5 -13 5 -14 0 -19 -2 -12 -5z"/>
<path d="M4238 3313 c7 -3 16 -2 19 1 4 3 -2 6 -13 5 -11 0 -14 -3 -6 -6z"/>
</g>
</svg>
